<svg width="238" height="195" viewBox="0 0 238 195" fill="none" xmlns="http://www.w3.org/2000/svg">
<path d="M33.8437 96.7716C54.2541 107.515 31.2035 169.173 53.1574 169.173H54.4775V194.417H51.1874C-11.1201 194.417 29.0305 108.185 4.23341 108.185H0.496582V86.0282H4.23341C33.8437 86.0079 -11.1404 0 51.1874 0H54.4775V25.2439H53.1574C31.2239 25.2439 54.2541 85.8048 33.8437 96.7716Z" fill="#6CC5A9"/>
<path d="M68.4302 96.67C68.4302 85.886 78.1784 76.4018 89.7545 76.4018C101.33 76.4018 110.815 85.886 110.815 96.67C110.815 108.774 101.066 117.994 89.7545 117.994C78.4424 117.994 68.4302 108.774 68.4302 96.67Z" fill="#2E4599"/>
<path d="M126.615 96.67C126.615 85.886 136.363 76.4018 147.939 76.4018C159.515 76.4018 168.999 85.886 168.999 96.67C168.999 108.774 159.251 117.994 147.939 117.994C136.627 117.994 126.615 108.774 126.615 96.67Z" fill="#2E4599"/>
<path d="M237.705 86.0079V108.165H233.968C209.171 108.165 249.118 194.396 187.014 194.396H183.724V169.152H185.044C206.977 169.152 183.947 107.495 204.357 96.7513C183.947 85.7845 206.998 25.2236 185.044 25.2236H183.724V0H187.014C249.118 0 204.134 86.0079 233.744 86.0079H237.684H237.705Z" fill="#6CC5A9"/>
</svg>
